<?xml version="1.0" encoding="UTF-8"?>
<!DOCTYPE svg PUBLIC "-//W3C//DTD SVG 1.1//EN" "http://www.w3.org/Graphics/SVG/1.1/DTD/svg11.dtd">
<svg xmlns="http://www.w3.org/2000/svg" version="1.1" width="500px" height="500px" style="shape-rendering:geometricPrecision; text-rendering:geometricPrecision; image-rendering:optimizeQuality; fill-rule:evenodd; clip-rule:evenodd" xmlns:xlink="http://www.w3.org/1999/xlink">
<g><path style="opacity:1" fill="#40bc4e" d="M -0.5,-0.5 C 166.167,-0.5 332.833,-0.5 499.5,-0.5C 499.5,166.167 499.5,332.833 499.5,499.5C 332.833,499.5 166.167,499.5 -0.5,499.5C -0.5,332.833 -0.5,166.167 -0.5,-0.5 Z"/></g>
<g><path style="opacity:1" fill="#292b3a" d="M 239.5,228.5 C 244.493,228.997 245.493,231.164 242.5,235C 237.382,234.824 236.382,232.658 239.5,228.5 Z"/></g>
<g><path style="opacity:1" fill="#292a3a" d="M 151.5,229.5 C 153.911,229.137 155.411,230.137 156,232.5C 158.302,246.343 160.969,260.01 164,273.5C 162.062,274.86 160.396,274.527 159,272.5C 157.437,268.179 155.937,263.845 154.5,259.5C 149.032,258.631 143.699,259.298 138.5,261.5C 136.941,265.619 135.107,269.619 133,273.5C 131.951,274.517 130.784,274.684 129.5,274C 128.409,271.936 128.242,269.769 129,267.5C 135.186,254.14 142.686,241.473 151.5,229.5 Z"/></g>
<g><path style="opacity:1" fill="#292a3a" d="M 347.5,240.5 C 350.635,240.548 352.302,242.215 352.5,245.5C 364.928,239.718 371.594,243.718 372.5,257.5C 372.775,270.901 366.442,276.234 353.5,273.5C 352.671,278.802 352.171,284.136 352,289.5C 350.333,290.833 348.667,290.833 347,289.5C 346.183,273.093 346.349,256.759 347.5,240.5 Z"/></g>
<g><path style="opacity:1" fill="#3fae4d" d="M 150.5,240.5 C 156.477,250.036 153.811,254.203 142.5,253C 145.39,248.95 148.057,244.783 150.5,240.5 Z"/></g>
<g><path style="opacity:1" fill="#2b2f3b" d="M 220.5,241.5 C 226.619,240.617 229.619,243.284 229.5,249.5C 229.97,254.16 228.137,255.494 224,253.5C 223.505,251.527 223.338,249.527 223.5,247.5C 218.53,247.971 214.696,250.305 212,254.5C 211.667,261.167 211.333,267.833 211,274.5C 209.506,275.747 208.006,275.747 206.5,274.5C 205.359,264.547 205.192,254.547 206,244.5C 209.132,241.597 211.298,242.264 212.5,246.5C 215.231,244.808 217.898,243.142 220.5,241.5 Z"/></g>
<g><path style="opacity:1" fill="#2a2d3b" d="M 262.5,241.5 C 266.792,241.035 270.792,241.868 274.5,244C 277.119,246.257 277.119,248.423 274.5,250.5C 266.354,245.028 260.854,247.028 258,256.5C 257.215,269.928 262.882,273.262 275,266.5C 278.23,268.602 278.063,270.768 274.5,273C 261.898,278.2 254.231,274.2 251.5,261C 252.719,253.057 256.385,246.557 262.5,241.5 Z"/></g>
<g><path style="opacity:1" fill="#292c3b" d="M 292.5,242.5 C 303.454,241.452 309.121,246.452 309.5,257.5C 309.571,267.407 304.904,273.407 295.5,275.5C 287.078,273.85 282.745,268.683 282.5,260C 282.885,252.388 286.218,246.555 292.5,242.5 Z"/></g>
<g><path style="opacity:1" fill="#2a2e3b" d="M 331.5,241.5 C 334.365,241.055 336.865,241.722 339,243.5C 339.499,247.152 339.665,250.818 339.5,254.5C 337.856,254.714 336.356,254.38 335,253.5C 334.505,251.527 334.338,249.527 334.5,247.5C 330.305,247.681 326.805,249.347 324,252.5C 322.737,259.728 322.07,267.061 322,274.5C 320.333,275.833 318.667,275.833 317,274.5C 316.333,264.167 316.333,253.833 317,243.5C 320.384,241.727 322.551,242.727 323.5,246.5C 325.928,244.295 328.595,242.628 331.5,241.5 Z"/></g>
<g><path style="opacity:1" fill="#2a2d3b" d="M 183.5,242.5 C 189.613,241.41 194.779,243.077 199,247.5C 198.021,257.092 197.354,266.758 197,276.5C 196.332,284.39 192.165,288.89 184.5,290C 180.833,290.667 177.167,290.667 173.5,290C 170.961,288.901 170.295,287.234 171.5,285C 176.155,285.164 180.821,285.164 185.5,285C 190.462,281.457 192.296,276.624 191,270.5C 181.904,276.964 175.238,274.964 171,264.5C 169.753,253.984 173.92,246.651 183.5,242.5 Z"/></g>
<g><path style="opacity:1" fill="#292b3a" d="M 238.5,242.5 C 239.822,242.33 240.989,242.663 242,243.5C 242.667,253.167 242.667,262.833 242,272.5C 240.062,273.86 238.396,273.527 237,271.5C 236.139,261.712 236.639,252.045 238.5,242.5 Z"/></g>
<g><path style="opacity:1" fill="#40b54e" d="M 184.5,247.5 C 186.857,247.337 189.19,247.503 191.5,248C 192.624,248.839 193.291,250.006 193.5,251.5C 193.518,257.282 191.852,262.449 188.5,267C 180.999,271.21 176.999,268.877 176.5,260C 177.004,254.351 179.67,250.185 184.5,247.5 Z"/></g>
<g><path style="opacity:1" fill="#40b64e" d="M 294.5,248.5 C 301.585,247.952 304.585,251.286 303.5,258.5C 303.966,264.245 301.466,267.912 296,269.5C 290.877,268.294 288.377,264.961 288.5,259.5C 288.706,254.747 290.706,251.081 294.5,248.5 Z"/></g>
<g><path style="opacity:1" fill="#40b94e" d="M 357.5,248.5 C 364.354,247.857 367.354,251.023 366.5,258C 366.49,267.009 362.157,270.176 353.5,267.5C 352.338,262.533 352.171,257.533 353,252.5C 354.397,250.93 355.897,249.596 357.5,248.5 Z"/></g>
</svg>
